<?xml version="1.0" encoding="UTF-8"?>
<svg width="188px" height="44px" viewBox="0 0 188 44" version="1.1" xmlns="http://www.w3.org/2000/svg" xmlns:xlink="http://www.w3.org/1999/xlink">
    <!-- Generator: Sketch 42 (36781) - http://www.bohemiancoding.com/sketch -->
    <title>artsquare_logo</title>
    <desc>Created with Sketch.</desc>
    <defs>
        <linearGradient x1="50%" y1="0%" x2="50%" y2="100%" id="linearGradient-1">
            <stop stop-color="#0AB0EE" offset="0%"></stop>
            <stop stop-color="#834CF1" offset="100%"></stop>
        </linearGradient>
    </defs>
    <g id="Page-1" stroke="none" stroke-width="1" fill="none" fill-rule="evenodd">
        <g id="Homepage_Desktop" transform="translate(-237.000000, -44.000000)">
            <g id="HERO" transform="translate(-1.000000, 0.000000)">
                <g id="artsquare_logo" transform="translate(238.000000, 44.000000)">
                    <path d="M0.321120531,33.0670601 L0.102939603,33.0670601 L0.102939603,32.9410933 L0.0906899352,32.9340209 L0.102939603,32.9128039 L0.102939603,11.0947656 L0.0906899352,11.0735486 L0.102939603,11.0664762 L0.102939603,10.9196741 L0.357208427,10.9196741 L11.1846968,4.66842076 L17.1328694,8.1025998 L6.05106854,14.5006805 L6.05106854,29.5068891 L19.2610882,37.1336975 L32.4716213,29.5065927 L32.4716213,14.5009769 L21.2956237,8.04851167 L27.2437963,4.61433263 L38.1649681,10.9196741 L38.4197939,10.9196741 L38.4197939,11.0667978 L38.4314866,11.0735486 L38.4197939,11.0938009 L38.4197939,32.9137687 L38.4314866,32.9340209 L38.4197939,32.9407717 L38.4197939,33.0670601 L38.201056,33.0670601 L19.2806895,43.9907388 L19.2708889,44.007714 L19.2610882,44.0020556 L19.2512876,44.007714 L19.241487,43.9907388 L0.321120531,33.0670601 Z M19.1800915,6.92063553 L13.2319189,3.48645649 L19.241487,0.0168307644 L19.2512876,-0.000144430828 L19.2610882,0.00551396758 L19.2708889,-0.000144430828 L19.2806895,0.0168307644 L25.1965742,3.43236836 L22.2386318,5.14013716 L22.2449752,5.15112413 L19.1800915,6.92063553 Z" id="Combined-Shape" fill="url(#linearGradient-1)"></path>
                    <path d="M65.0425637,30.1072222 C66.3625703,30.1072222 67.4550594,29.724726 68.3200637,28.9597222 C69.185068,28.1947184 69.6175637,27.232228 69.6175637,26.0722222 L69.6175637,24.7672222 L65.3875637,25.0372222 C62.9275514,25.187223 61.6975637,26.0522143 61.6975637,27.6322222 C61.6975637,28.382226 62.0000607,28.98222 62.6050637,29.4322222 C63.2100667,29.8822245 64.0225586,30.1072222 65.0425637,30.1072222 Z M64.4875637,32.3722222 C62.8475555,32.3722222 61.5275687,31.9372266 60.5275637,31.0672222 C59.5275587,30.1972179 59.0275637,29.0472294 59.0275637,27.6172222 C59.0275637,24.767208 61.0475435,23.2172235 65.0875637,22.9672222 L69.6175637,22.6972222 L69.6175637,21.3472222 C69.6175637,20.3372172 69.2975669,19.5647249 68.6575637,19.0297222 C68.0175605,18.4947195 67.1025696,18.2272222 65.9125637,18.2272222 C64.972559,18.2272222 64.1800669,18.44972 63.5350637,18.8947222 C62.8900605,19.3397244 62.4875645,19.9472184 62.3275637,20.7172222 L59.8225637,20.7172222 C59.8625639,19.3472154 60.4700578,18.2022268 61.6450637,17.2822222 C62.8200696,16.3622176 64.2525552,15.9022222 65.9425637,15.9022222 C67.8525732,15.9022222 69.377558,16.3747175 70.5175637,17.3197222 C71.6575694,18.2647269 72.2275637,19.5322143 72.2275637,21.1222222 L72.2275637,32.2222222 L69.7525637,32.2222222 L69.7525637,29.4172222 L69.6925637,29.4172222 C69.2325614,30.3172267 68.5325684,31.0347195 67.5925637,31.5697222 C66.652559,32.1047249 65.6175693,32.3722222 64.4875637,32.3722222 Z M76.2061637,32.2222222 L78.8161637,32.2222222 L78.8161637,22.2172222 C78.8161637,21.0772165 79.1336605,20.1572257 79.7686637,19.4572222 C80.4036669,18.7572187 81.2461584,18.4072222 82.2961637,18.4072222 C82.6161653,18.4072222 82.9086624,18.4222221 83.1736637,18.4522222 C83.438665,18.4822224 83.6211632,18.517222 83.7211637,18.5572222 L83.7211637,15.9922222 C83.6111631,15.9722221 83.4611646,15.9522223 83.2711637,15.9322222 C83.0811627,15.9122221 82.8711648,15.9022222 82.6411637,15.9022222 C81.701159,15.9022222 80.8736673,16.1522197 80.1586637,16.6522222 C79.4436601,17.1522247 78.9661649,17.827218 78.7261637,18.6772222 L78.6661637,18.6772222 L78.6661637,16.0522222 L76.2061637,16.0522222 L76.2061637,32.2222222 Z M87.3097637,12.4072222 L87.3097637,16.0522222 L85.0597637,16.0522222 L85.0597637,18.2122222 L87.3097637,18.2122222 L87.3097637,28.0222222 C87.3097637,29.57223 87.6222606,30.6797189 88.2472637,31.3447222 C88.8722668,32.0097255 89.9147564,32.3422222 91.3747637,32.3422222 C91.6847652,32.3422222 92.0022621,32.3297223 92.3272637,32.3047222 C92.6522653,32.2797221 92.8947629,32.2472224 93.0547637,32.2072222 L93.0547637,30.0022222 C92.9647632,30.0122223 92.7947649,30.0272221 92.5447637,30.0472222 C92.2947624,30.0672223 92.0897645,30.0772222 91.9297637,30.0772222 C91.2397602,30.0772222 90.7322653,29.902224 90.4072637,29.5522222 C90.0822621,29.2022205 89.9197637,28.6572259 89.9197637,27.9172222 L89.9197637,18.2122222 L93.0697637,18.2122222 L93.0697637,16.0522222 L89.9197637,16.0522222 L89.9197637,12.4072222 L87.3097637,12.4072222 Z M96.2083637,20.5672222 C96.2083637,22.717233 97.6133496,24.1572186 100.423364,24.8872222 L103.258364,25.6222222 C104.178368,25.8622234 104.828362,26.1497205 105.208364,26.4847222 C105.588366,26.8197239 105.778364,27.2722194 105.778364,27.8422222 C105.778364,28.5722259 105.455867,29.1497201 104.810864,29.5747222 C104.16586,29.9997243 103.293369,30.2122222 102.193364,30.2122222 C101.093358,30.2122222 100.218367,29.9947244 99.5683637,29.5597222 C98.9183604,29.12472 98.5233644,28.4972263 98.3833637,27.6772222 L95.7583637,27.6772222 C95.8883643,29.0772292 96.5283579,30.2097179 97.6783637,31.0747222 C98.8283694,31.9397265 100.273355,32.3722222 102.013364,32.3722222 C103.883373,32.3722222 105.415858,31.9322266 106.610864,31.0522222 C107.80587,30.1722178 108.403364,29.0422291 108.403364,27.6622222 C108.403364,26.4822163 108.073367,25.5697254 107.413364,24.9247222 C106.75336,24.279719 105.603372,23.7522243 103.963364,23.3422222 L101.503364,22.7272222 C100.573359,22.4972211 99.8858659,22.1947241 99.4408637,21.8197222 C98.9958615,21.4447203 98.7733637,20.982225 98.7733637,20.4322222 C98.7733637,19.7222187 99.0783606,19.1522244 99.6883637,18.7222222 C100.298367,18.2922201 101.103359,18.0772222 102.103364,18.0772222 C103.093369,18.0772222 103.898361,18.29722 104.518364,18.7372222 C105.138367,19.1772244 105.488363,19.7772184 105.568364,20.5372222 L108.073364,20.5372222 C108.023363,19.2072156 107.440869,18.1047266 106.325864,17.2297222 C105.210858,16.3547178 103.833372,15.9172222 102.193364,15.9172222 C100.443355,15.9172222 99.0083693,16.3497179 97.8883637,17.2147222 C96.7683581,18.0797265 96.2083637,19.1972154 96.2083637,20.5672222 Z M117.856964,15.9022222 C119.02697,15.9022222 120.066959,16.1422198 120.976964,16.6222222 C121.886968,17.1022246 122.601961,17.7872178 123.121964,18.6772222 L123.166964,18.6772222 L123.166964,16.0522222 L125.656964,16.0522222 L125.656964,37.6222222 L123.046964,37.6222222 L123.046964,29.5972222 L122.986964,29.5972222 C122.476961,30.4772266 121.769468,31.1597198 120.864464,31.6447222 C119.959459,32.1297246 118.936969,32.3722222 117.796964,32.3722222 C115.766954,32.3722222 114.11947,31.6172298 112.854464,30.1072222 C111.589457,28.5972147 110.956964,26.6072346 110.956964,24.1372222 C110.956964,21.6572098 111.591957,19.6647297 112.861964,18.1597222 C114.13197,16.6547147 115.796953,15.9022222 117.856964,15.9022222 Z M118.291964,30.0472222 C119.701971,30.0472222 120.846959,29.4997277 121.726964,28.4047222 C122.606968,27.3097167 123.046964,25.887231 123.046964,24.1372222 C123.046964,22.3872135 122.606968,20.9647277 121.726964,19.8697222 C120.846959,18.7747167 119.701971,18.2272222 118.291964,18.2272222 C116.881957,18.2272222 115.751968,18.7647168 114.901964,19.8397222 C114.051959,20.9147276 113.626964,22.3472133 113.626964,24.1372222 C113.626964,25.9372312 114.051959,27.3722169 114.901964,28.4422222 C115.751968,29.5122276 116.881957,30.0472222 118.291964,30.0472222 Z M142.895564,16.0522222 L140.285564,16.0522222 L140.285564,25.4422222 C140.285564,26.8322292 139.908067,27.947218 139.153064,28.7872222 C138.39806,29.6272264 137.35557,30.0472222 136.025564,30.0472222 C134.755557,30.0472222 133.808067,29.6997257 133.183064,29.0047222 C132.558061,28.3097187 132.245564,27.2972289 132.245564,25.9672222 L132.245564,16.0522222 L129.635564,16.0522222 L129.635564,26.4172222 C129.635564,28.2572314 130.125559,29.7097169 131.105564,30.7747222 C132.085569,31.8397275 133.460555,32.3722222 135.230564,32.3722222 C136.47057,32.3722222 137.513059,32.1347246 138.358064,31.6597222 C139.203068,31.1847198 139.875561,30.4822269 140.375564,29.5522222 L140.435564,29.5522222 L140.435564,32.2222222 L142.895564,32.2222222 L142.895564,16.0522222 Z M152.229164,30.1072222 C153.54917,30.1072222 154.641659,29.724726 155.506664,28.9597222 C156.371668,28.1947184 156.804164,27.232228 156.804164,26.0722222 L156.804164,24.7672222 L152.574164,25.0372222 C150.114151,25.187223 148.884164,26.0522143 148.884164,27.6322222 C148.884164,28.382226 149.186661,28.98222 149.791664,29.4322222 C150.396667,29.8822245 151.209159,30.1072222 152.229164,30.1072222 Z M151.674164,32.3722222 C150.034156,32.3722222 148.714169,31.9372266 147.714164,31.0672222 C146.714159,30.1972179 146.214164,29.0472294 146.214164,27.6172222 C146.214164,24.767208 148.234144,23.2172235 152.274164,22.9672222 L156.804164,22.6972222 L156.804164,21.3472222 C156.804164,20.3372172 156.484167,19.5647249 155.844164,19.0297222 C155.204161,18.4947195 154.28917,18.2272222 153.099164,18.2272222 C152.159159,18.2272222 151.366667,18.44972 150.721664,18.8947222 C150.07666,19.3397244 149.674165,19.9472184 149.514164,20.7172222 L147.009164,20.7172222 C147.049164,19.3472154 147.656658,18.2022268 148.831664,17.2822222 C150.00667,16.3622176 151.439155,15.9022222 153.129164,15.9022222 C155.039173,15.9022222 156.564158,16.3747175 157.704164,17.3197222 C158.844169,18.2647269 159.414164,19.5322143 159.414164,21.1222222 L159.414164,32.2222222 L156.939164,32.2222222 L156.939164,29.4172222 L156.879164,29.4172222 C156.419161,30.3172267 155.719168,31.0347195 154.779164,31.5697222 C153.839159,32.1047249 152.804169,32.3722222 151.674164,32.3722222 Z M163.392764,32.2222222 L166.002764,32.2222222 L166.002764,22.2172222 C166.002764,21.0772165 166.320261,20.1572257 166.955264,19.4572222 C167.590267,18.7572187 168.432758,18.4072222 169.482764,18.4072222 C169.802765,18.4072222 170.095262,18.4222221 170.360264,18.4522222 C170.625265,18.4822224 170.807763,18.517222 170.907764,18.5572222 L170.907764,15.9922222 C170.797763,15.9722221 170.647765,15.9522223 170.457764,15.9322222 C170.267763,15.9122221 170.057765,15.9022222 169.827764,15.9022222 C168.887759,15.9022222 168.060267,16.1522197 167.345264,16.6522222 C166.63026,17.1522247 166.152765,17.827218 165.912764,18.6772222 L165.852764,18.6772222 L165.852764,16.0522222 L163.392764,16.0522222 L163.392764,32.2222222 Z M180.091364,18.1972222 C178.821357,18.1972222 177.768868,18.617218 176.933864,19.4572222 C176.09886,20.2972264 175.636364,21.4022154 175.546364,22.7722222 L184.441364,22.7722222 C184.411364,21.4022154 183.998868,20.2972264 183.203864,19.4572222 C182.40886,18.617218 181.37137,18.1972222 180.091364,18.1972222 Z M184.381364,27.6022222 L186.961364,27.6022222 C186.741363,28.9922292 186.00137,30.1347177 184.741364,31.0297222 C183.481357,31.9247267 181.986372,32.3722222 180.256364,32.3722222 C177.986352,32.3722222 176.18387,31.6347296 174.848864,30.1597222 C173.513857,28.6847148 172.846364,26.6972347 172.846364,24.1972222 C172.846364,21.6872097 173.511357,19.6772298 174.841364,18.1672222 C176.17137,16.6572147 177.936353,15.9022222 180.136364,15.9022222 C182.296375,15.9022222 184.006357,16.6122151 185.266364,18.0322222 C186.52637,19.4522293 187.156364,21.38721 187.156364,23.8372222 L187.156364,24.8572222 L175.546364,24.8572222 L175.546364,25.0072222 C175.546364,26.5472299 175.981359,27.7772176 176.851364,28.6972222 C177.721368,29.6172268 178.876357,30.0772222 180.316364,30.0772222 C181.326369,30.0772222 182.19886,29.8547244 182.933864,29.4097222 C183.668867,28.96472 184.151363,28.362226 184.381364,27.6022222 Z" id="artsquare" fill="#000000"></path>
                </g>
            </g>
        </g>
    </g>
</svg>