<?xml version="1.0" encoding="UTF-8"?>
<svg width="192px" height="44px" viewBox="0 0 192 44" version="1.1" xmlns="http://www.w3.org/2000/svg" xmlns:xlink="http://www.w3.org/1999/xlink">
    <!-- Generator: Sketch 42 (36781) - http://www.bohemiancoding.com/sketch -->
    <title>artsquare_logo</title>
    <desc>Created with Sketch.</desc>
    <defs>
        <linearGradient x1="50%" y1="0%" x2="50%" y2="100%" id="linearGradient-1">
            <stop stop-color="#0AB0EE" offset="0%"></stop>
            <stop stop-color="#834CF1" offset="100%"></stop>
        </linearGradient>
    </defs>
    <g id="Page-1" stroke="none" stroke-width="1" fill="none" fill-rule="evenodd">
        <g id="Homepage_Desktop" transform="translate(-237.000000, -44.000000)">
            <g id="HERO" transform="translate(-1.000000, 0.000000)">
                <g id="artsquare_logo" transform="translate(238.000000, 44.000000)">
                    <path d="M0.321120531,33.0670601 L0.102939603,33.0670601 L0.102939603,32.9410933 L0.0906899352,32.9340209 L0.102939603,32.9128039 L0.102939603,11.0947656 L0.0906899352,11.0735486 L0.102939603,11.0664762 L0.102939603,10.9196741 L0.357208427,10.9196741 L11.1846968,4.66842076 L17.1328694,8.1025998 L6.05106854,14.5006805 L6.05106854,29.5068891 L19.2610882,37.1336975 L32.4716213,29.5065927 L32.4716213,14.5009769 L21.2956237,8.04851167 L27.2437963,4.61433263 L38.1649681,10.9196741 L38.4197939,10.9196741 L38.4197939,11.0667978 L38.4314866,11.0735486 L38.4197939,11.0938009 L38.4197939,32.9137687 L38.4314866,32.9340209 L38.4197939,32.9407717 L38.4197939,33.0670601 L38.201056,33.0670601 L19.2806895,43.9907388 L19.2708889,44.007714 L19.2610882,44.0020556 L19.2512876,44.007714 L19.241487,43.9907388 L0.321120531,33.0670601 Z M19.1800915,6.92063553 L13.2319189,3.48645649 L19.241487,0.0168307644 L19.2512876,-0.000144430828 L19.2610882,0.00551396758 L19.2708889,-0.000144430828 L19.2806895,0.0168307644 L25.1965742,3.43236836 L22.2386318,5.14013716 L22.2449752,5.15112413 L19.1800915,6.92063553 Z" id="Combined-Shape" fill="url(#linearGradient-1)"></path>
                    <path d="M64.3358837,30.5294222 C63.5986,30.5294222 62.9125269,30.4014235 62.2776437,30.1454222 C61.6427605,29.8894209 61.0846861,29.5412644 60.6034037,29.1009422 C60.1221213,28.66062 59.748365,28.1383852 59.4821237,27.5342222 C59.2158824,26.9300592 59.0827637,26.2798257 59.0827637,25.5835022 C59.0827637,24.8871787 59.2466021,24.2523051 59.5742837,23.6788622 C59.9019653,23.1054194 60.3576408,22.6087843 60.9413237,22.1889422 C61.5250066,21.7691001 62.2264396,21.4414234 63.0456437,21.2059022 C63.8648478,20.970381 64.7659588,20.8526222 65.7490037,20.8526222 C66.609168,20.8526222 67.4744393,20.9294215 68.3448437,21.0830222 C69.215248,21.236623 69.9986002,21.4465409 70.6949237,21.7127822 L70.6949237,20.1460622 C70.6949237,18.6305346 70.264848,17.4273467 69.4046837,16.5364622 C68.5445194,15.6455778 67.3771711,15.2001422 65.9026037,15.2001422 C65.1243598,15.2001422 64.300048,15.3639806 63.4296437,15.6916622 C62.5592393,16.0193439 61.6734882,16.4903792 60.7723637,17.1047822 L60.1886837,16.0603022 C62.2366939,14.6676553 64.1822745,13.9713422 66.0254837,13.9713422 C67.9506133,13.9713422 69.4661182,14.5294166 70.5720437,15.6455822 C71.6779692,16.7617478 72.2309237,18.3028524 72.2309237,20.2689422 L72.2309237,28.0718222 C72.2309237,28.5838248 72.4562014,28.8398222 72.9067637,28.8398222 L72.9067637,30.2222222 C72.8043632,30.2427023 72.6968443,30.2580622 72.5842037,30.2683022 C72.4715631,30.2785423 72.3742841,30.2836622 72.2923637,30.2836622 C71.8827616,30.2836622 71.5550849,30.1454236 71.3093237,29.8689422 C71.0635625,29.5924608 70.9202039,29.2596642 70.8792437,28.8705422 L70.8792437,27.5495822 C70.14196,28.512147 69.1998894,29.2494197 68.0530037,29.7614222 C66.906118,30.2734248 65.6670904,30.5294222 64.3358837,30.5294222 Z M64.6430837,29.3006222 C65.8309296,29.3006222 66.9214787,29.0753445 67.9147637,28.6247822 C68.9080487,28.17422 69.670921,27.5803059 70.2034037,26.8430222 C70.5310853,26.4129401 70.6949237,26.0033442 70.6949237,25.6142222 L70.6949237,22.7879822 C69.95764,22.5012608 69.1896477,22.2862229 68.3909237,22.1428622 C67.5921997,21.9995015 66.762768,21.9278222 65.9026037,21.9278222 C65.1038797,21.9278222 64.376847,22.0148614 63.7214837,22.1889422 C63.0661204,22.3630231 62.502926,22.6036607 62.0318837,22.9108622 C61.5608413,23.2180638 61.197325,23.59182 60.9413237,24.0321422 C60.6853224,24.4724644 60.5573237,24.9588596 60.5573237,25.4913422 C60.5573237,26.0238249 60.6597227,26.5255799 60.8645237,26.9966222 C61.0693247,27.4676646 61.3560419,27.8721405 61.7246837,28.2100622 C62.0933255,28.5479839 62.5285212,28.8142212 63.0302837,29.0087822 C63.5320462,29.2033432 64.0696408,29.3006222 64.6430837,29.3006222 Z M84.6110837,15.6302222 C83.1774765,15.6711824 81.9230891,16.0961382 80.8478837,16.9051022 C79.7726783,17.7140663 79.0200458,18.8250952 78.5899637,20.2382222 L78.5899637,30.2222222 L77.0539637,30.2222222 L77.0539637,14.2478222 L78.5285237,14.2478222 L78.5285237,18.1799822 C79.0814865,17.0535766 79.8136391,16.1371058 80.7250037,15.4305422 C81.6363683,14.7239787 82.6142785,14.3195027 83.6587637,14.2171022 C83.8635647,14.1966221 84.0478829,14.1863822 84.2117237,14.1863822 L84.6110837,14.1863822 L84.6110837,15.6302222 Z M94.8101237,29.4542222 C94.7282033,29.4951824 94.5899647,29.5719817 94.3954037,29.6846222 C94.2008427,29.7972628 93.9550852,29.9047817 93.6581237,30.0071822 C93.3611622,30.1095827 93.0283655,30.2017418 92.6597237,30.2836622 C92.2910819,30.3655826 91.8917258,30.4065422 91.4616437,30.4065422 C91.0315615,30.4065422 90.6270856,30.3451028 90.2482037,30.2222222 C89.8693218,30.0993416 89.5365251,29.9150235 89.2498037,29.6692622 C88.9630823,29.423501 88.7378045,29.126544 88.5739637,28.7783822 C88.4101229,28.4302205 88.3282037,28.0206246 88.3282037,27.5495822 L88.3282037,15.5073422 L86.0856437,15.5073422 L86.0856437,14.2478222 L88.3282037,14.2478222 L88.3282037,8.77966222 L89.8642037,8.77966222 L89.8642037,14.2478222 L93.5813237,14.2478222 L93.5813237,15.5073422 L89.8642037,15.5073422 L89.8642037,27.1809422 C89.8642037,27.7748652 90.0690016,28.2203007 90.4786037,28.5172622 C90.8882057,28.8142237 91.3490011,28.9627022 91.8610037,28.9627022 C92.4958869,28.9627022 93.0437214,28.8551833 93.5045237,28.6401422 C93.965326,28.4251011 94.2469232,28.2868625 94.3493237,28.2254222 L94.8101237,29.4542222 Z M102.735884,30.5294222 C101.507078,30.5294222 100.329489,30.3246243 99.2030837,29.9150222 C98.0766781,29.5054202 97.0936479,28.8910263 96.2539637,28.0718222 L97.0219637,27.0273422 C97.882128,27.8055861 98.7729991,28.3790204 99.6946037,28.7476622 C100.616208,29.1163041 101.629958,29.3006222 102.735884,29.3006222 C104.128531,29.3006222 105.249799,29.0087851 106.099724,28.4251022 C106.949648,27.8414193 107.374604,27.0273474 107.374604,25.9828622 C107.374604,25.4913398 107.267085,25.0766239 107.052044,24.7387022 C106.837003,24.4007805 106.514446,24.1140634 106.084364,23.8785422 C105.654282,23.643021 105.121807,23.4331031 104.486924,23.2487822 C103.852041,23.0644613 103.114768,22.8699032 102.275084,22.6651022 C101.373959,22.4603012 100.590607,22.2555032 99.9250037,22.0507022 C99.2594004,21.8459012 98.7115658,21.6001437 98.2814837,21.3134222 C97.8514015,21.0267008 97.5288448,20.6785443 97.3138037,20.2689422 C97.0987626,19.8593402 96.9912437,19.3371054 96.9912437,18.7022222 C96.9912437,17.9034982 97.1448422,17.2071852 97.4520437,16.6132622 C97.7592452,16.0193393 98.184201,15.5278242 98.7269237,15.1387022 C99.2696464,14.7495803 99.8942802,14.4577432 100.600844,14.2631822 C101.307407,14.0686212 102.06004,13.9713422 102.858764,13.9713422 C104.10805,13.9713422 105.213959,14.1812601 106.176524,14.6011022 C107.139089,15.0209443 107.886601,15.5585389 108.419084,16.2139022 L107.558924,17.0433422 C107.026441,16.4289392 106.335248,15.9681438 105.485324,15.6609422 C104.635399,15.3537407 103.729169,15.2001422 102.766604,15.2001422 C102.172681,15.2001422 101.614606,15.2615816 101.092364,15.3844622 C100.570121,15.5073428 100.114446,15.7019009 99.7253237,15.9681422 C99.3362018,16.2343836 99.0290048,16.5774201 98.8037237,16.9972622 C98.5784426,17.4171043 98.4658037,17.9137394 98.4658037,18.4871822 C98.4658037,18.9582246 98.5426029,19.3371008 98.6962037,19.6238222 C98.8498045,19.9105437 99.095562,20.1563012 99.4334837,20.3611022 C99.7714054,20.5659032 100.206601,20.7451015 100.739084,20.8987022 C101.271566,21.052303 101.90644,21.2212613 102.643724,21.4055822 C103.647249,21.6513435 104.53812,21.8868611 105.316364,22.1121422 C106.094608,22.3374233 106.744841,22.6139006 107.267084,22.9415822 C107.789326,23.2692639 108.188682,23.65838 108.465164,24.1089422 C108.741645,24.5595045 108.879884,25.1329387 108.879884,25.8292622 C108.879884,27.2628694 108.321809,28.404618 107.205644,29.2545422 C106.089478,30.1044665 104.599573,30.5294222 102.735884,30.5294222 Z M118.802444,30.5294222 C117.696518,30.5294222 116.698128,30.2990245 115.807244,29.8382222 C114.916359,29.3774199 114.148367,28.7630261 113.503244,27.9950222 C112.85812,27.2270184 112.361485,26.3463872 112.013324,25.3531022 C111.665162,24.3598173 111.491084,23.3307075 111.491084,22.2657422 C111.491084,21.1598167 111.690762,20.1051072 112.090124,19.1015822 C112.489486,18.0980572 113.0322,17.217426 113.718284,16.4596622 C114.404367,15.7018984 115.213319,15.0977445 116.145164,14.6471822 C117.077008,14.19662 118.075398,13.9713422 119.140364,13.9713422 C120.38965,13.9713422 121.556998,14.3041389 122.642444,14.9697422 C123.727889,15.6353456 124.577801,16.4698972 125.192204,17.4734222 L125.192204,14.2478222 L126.605324,14.2478222 L126.605324,34.5537422 C126.605324,35.0657448 126.820362,35.3319821 127.250444,35.3524622 L127.250444,36.7041422 C127.148043,36.7246223 127.055884,36.7348622 126.973964,36.7348622 L126.728204,36.7348622 C126.257161,36.7348622 125.862925,36.5863837 125.545484,36.2894222 C125.228042,35.9924607 125.069324,35.5982247 125.069324,35.1067022 L125.069324,26.7815822 C123.389955,29.2801547 121.301016,30.5294222 118.802444,30.5294222 Z M119.201804,29.1470222 C119.877647,29.1470222 120.507401,29.0343833 121.091084,28.8091022 C121.674767,28.5838211 122.212361,28.2868641 122.703884,27.9182222 C123.195406,27.5495804 123.640842,27.1143847 124.040204,26.6126222 C124.439566,26.1108597 124.782602,25.583505 125.069324,25.0305422 L125.069324,19.8081422 C124.987403,19.2142193 124.762126,18.6510249 124.393484,18.1185422 C124.024842,17.5860596 123.569166,17.1150243 123.026444,16.7054222 C122.483721,16.2958202 121.894927,15.9681435 121.260044,15.7223822 C120.625161,15.476621 120.000527,15.3537422 119.386124,15.3537422 C118.464519,15.3537422 117.614608,15.5534202 116.836364,15.9527822 C116.05812,16.3521442 115.387407,16.874379 114.824204,17.5195022 C114.261001,18.1646254 113.825805,18.907018 113.518604,19.7467022 C113.211402,20.5863864 113.057804,21.4362979 113.057804,22.2964622 C113.057804,23.2180668 113.211402,24.0884581 113.518604,24.9076622 C113.825805,25.7268663 114.250761,26.453899 114.793484,27.0887822 C115.336206,27.7236654 115.98132,28.2254204 116.728844,28.5940622 C117.476367,28.9627041 118.300679,29.1470222 119.201804,29.1470222 Z M136.497164,30.5294222 C133.097467,30.5294222 131.397644,28.1742458 131.397644,23.4638222 L131.397644,14.2478222 L132.933644,14.2478222 L132.933644,23.2487822 C132.933644,27.1809619 134.27507,29.1470222 136.957964,29.1470222 C137.633807,29.1470222 138.289161,29.0292634 138.924044,28.7937422 C139.558927,28.558221 140.152841,28.2305443 140.705804,27.8107022 C141.258766,27.3908601 141.745162,26.8839852 142.165004,26.2900622 C142.584846,25.6961393 142.917642,25.0407858 143.163404,24.3239822 L143.163404,14.2478222 L144.699404,14.2478222 L144.699404,28.0718222 C144.699404,28.5838248 144.914442,28.8398222 145.344524,28.8398222 L145.344524,30.2222222 C145.242123,30.2427023 145.149964,30.2529422 145.068044,30.2529422 L144.883724,30.2529422 C144.474122,30.2529422 144.110605,30.1249435 143.793164,29.8689422 C143.475722,29.6129409 143.317004,29.2699044 143.317004,28.8398222 L143.317004,26.4436622 C142.62068,27.7339087 141.66325,28.7374186 140.444684,29.4542222 C139.226118,30.1710258 137.910291,30.5294222 136.497164,30.5294222 Z M153.669644,30.5294222 C152.93236,30.5294222 152.246287,30.4014235 151.611404,30.1454222 C150.976521,29.8894209 150.418446,29.5412644 149.937164,29.1009422 C149.455881,28.66062 149.082125,28.1383852 148.815884,27.5342222 C148.549642,26.9300592 148.416524,26.2798257 148.416524,25.5835022 C148.416524,24.8871787 148.580362,24.2523051 148.908044,23.6788622 C149.235725,23.1054194 149.691401,22.6087843 150.275084,22.1889422 C150.858767,21.7691001 151.5602,21.4414234 152.379404,21.2059022 C153.198608,20.970381 154.099719,20.8526222 155.082764,20.8526222 C155.942928,20.8526222 156.808199,20.9294215 157.678604,21.0830222 C158.549008,21.236623 159.33236,21.4465409 160.028684,21.7127822 L160.028684,20.1460622 C160.028684,18.6305346 159.598608,17.4273467 158.738444,16.5364622 C157.878279,15.6455778 156.710931,15.2001422 155.236364,15.2001422 C154.45812,15.2001422 153.633808,15.3639806 152.763404,15.6916622 C151.892999,16.0193439 151.007248,16.4903792 150.106124,17.1047822 L149.522444,16.0603022 C151.570454,14.6676553 153.516034,13.9713422 155.359244,13.9713422 C157.284373,13.9713422 158.799878,14.5294166 159.905804,15.6455822 C161.011729,16.7617478 161.564684,18.3028524 161.564684,20.2689422 L161.564684,28.0718222 C161.564684,28.5838248 161.789961,28.8398222 162.240524,28.8398222 L162.240524,30.2222222 C162.138123,30.2427023 162.030604,30.2580622 161.917964,30.2683022 C161.805323,30.2785423 161.708044,30.2836622 161.626124,30.2836622 C161.216522,30.2836622 160.888845,30.1454236 160.643084,29.8689422 C160.397322,29.5924608 160.253964,29.2596642 160.213004,28.8705422 L160.213004,27.5495822 C159.47572,28.512147 158.533649,29.2494197 157.386764,29.7614222 C156.239878,30.2734248 155.00085,30.5294222 153.669644,30.5294222 Z M153.976844,29.3006222 C155.16469,29.3006222 156.255239,29.0753445 157.248524,28.6247822 C158.241809,28.17422 159.004681,27.5803059 159.537164,26.8430222 C159.864845,26.4129401 160.028684,26.0033442 160.028684,25.6142222 L160.028684,22.7879822 C159.2914,22.5012608 158.523408,22.2862229 157.724684,22.1428622 C156.92596,21.9995015 156.096528,21.9278222 155.236364,21.9278222 C154.43764,21.9278222 153.710607,22.0148614 153.055244,22.1889422 C152.39988,22.3630231 151.836686,22.6036607 151.365644,22.9108622 C150.894601,23.2180638 150.531085,23.59182 150.275084,24.0321422 C150.019082,24.4724644 149.891084,24.9588596 149.891084,25.4913422 C149.891084,26.0238249 149.993483,26.5255799 150.198284,26.9966222 C150.403085,27.4676646 150.689802,27.8721405 151.058444,28.2100622 C151.427086,28.5479839 151.862281,28.8142212 152.364044,29.0087822 C152.865806,29.2033432 153.403401,29.3006222 153.976844,29.3006222 Z M173.944844,15.6302222 C172.511237,15.6711824 171.256849,16.0961382 170.181644,16.9051022 C169.106438,17.7140663 168.353806,18.8250952 167.923724,20.2382222 L167.923724,30.2222222 L166.387724,30.2222222 L166.387724,14.2478222 L167.862284,14.2478222 L167.862284,18.1799822 C168.415246,17.0535766 169.147399,16.1371058 170.058764,15.4305422 C170.970128,14.7239787 171.948038,14.3195027 172.992524,14.2171022 C173.197325,14.1966221 173.381643,14.1863822 173.545484,14.1863822 L173.944844,14.1863822 L173.944844,15.6302222 Z M183.805964,30.5294222 C182.679558,30.5294222 181.635089,30.3092644 180.672524,29.8689422 C179.709959,29.42862 178.875407,28.8244661 178.168844,28.0564622 C177.46228,27.2884584 176.909326,26.4027072 176.509964,25.3991822 C176.110602,24.3956572 175.910924,23.320468 175.910924,22.1735822 C175.910924,21.0471766 176.110602,19.9873472 176.509964,18.9940622 C176.909326,18.0007773 177.45716,17.130386 178.153484,16.3828622 C178.849807,15.6353385 179.674119,15.0465444 180.626444,14.6164622 C181.578768,14.1863801 182.607878,13.9713422 183.713804,13.9713422 C184.840209,13.9713422 185.884679,14.1915 186.847244,14.6318222 C187.809809,15.0721444 188.63924,15.6660585 189.335564,16.4135822 C190.031887,17.161106 190.574602,18.0314973 190.963724,19.0247822 C191.352846,20.0180672 191.547404,21.0676567 191.547404,22.1735822 L191.547404,22.5575822 C191.547404,22.711183 191.537164,22.808462 191.516684,22.8494222 L177.508364,22.8494222 C177.569804,23.7710268 177.784842,24.6260583 178.153484,25.4145422 C178.522126,26.2030262 178.988041,26.8839794 179.551244,27.4574222 C180.114447,28.0308651 180.76468,28.4814206 181.501964,28.8091022 C182.239247,29.1367839 183.02772,29.3006222 183.867404,29.3006222 C184.420366,29.3006222 184.963081,29.223823 185.495564,29.0702222 C186.028046,28.9166215 186.524681,28.7067036 186.985484,28.4404622 C187.446286,28.1742209 187.855882,27.8516641 188.214284,27.4727822 C188.572685,27.0939003 188.854283,26.6791845 189.059084,26.2286222 L190.410764,26.5972622 C190.185483,27.1707051 189.852686,27.6980598 189.412364,28.1793422 C188.972042,28.6606246 188.460047,29.0753405 187.876364,29.4235022 C187.292681,29.771664 186.652687,30.0430212 185.956364,30.2375822 C185.26004,30.4321432 184.543247,30.5294222 183.805964,30.5294222 Z M190.072844,21.6206222 C190.011403,20.6785375 189.801485,19.8183861 189.443084,19.0401422 C189.084682,18.2618983 188.623887,17.591185 188.060684,17.0279822 C187.497481,16.4647794 186.847247,16.0244638 186.109964,15.7070222 C185.37268,15.3895806 184.584208,15.2308622 183.744524,15.2308622 C182.90484,15.2308622 182.116367,15.3895806 181.379084,15.7070222 C180.6418,16.0244638 179.991567,16.4647794 179.428364,17.0279822 C178.865161,17.591185 178.414605,18.2670183 178.076684,19.0555022 C177.738762,19.8439862 177.539084,20.6990176 177.477644,21.6206222 L190.072844,21.6206222 Z" id="artsquare" fill="#000000"></path>
                </g>
            </g>
        </g>
    </g>
</svg>